# xmcd CD database file
#
# Track frame offsets:
#	150
#	16220
#	32627
#	47632
#	69820
#	85972
#	108575
#	138120
#	155547
#
# Disc length: 2365 seconds
#
# Revision: 0
# Processed by: cddbd v1.5PL3 Copyright (c) Steve Scherf et al.
# Submitted via: CDex 1.60beta1
#
DISCID=67093b09
DTITLE=Alex Welsh - If I Had a Talking Picture Of You
DYEAR=1900
DGENRE=Jazz
TTITLE0=If I Had a Talking Picture Of You
TTITLE1=Lazy River
TTITLE2=Breezin' Along With The Breeze
TTITLE3=Dapper Dan
TTITLE4=Love Is Just Around The Corner
TTITLE5=By The Time I Get To Phoenix
TTITLE6=Splanky
TTITLE7=Blueberry
TTITLE8=Opus One
EXTD=
EXTT0=
EXTT1=
EXTT2=
EXTT3=
EXTT4=
EXTT5=
EXTT6=
EXTT7=
EXTT8=
PLAYORDER=
